<svg xmlns="http://www.w3.org/2000/svg" xmlns:xlink="http://www.w3.org/1999/xlink" viewBox="0 0 500 500" width="500" height="500" preserveAspectRatio="xMidYMid meet" style="width: 100%; height: 100%; transform: translate3d(0px, 0px, 0px); content-visibility: visible;"><defs><clipPath id="__lottie_element_7"><rect width="500" height="500" x="0" y="0"></rect></clipPath></defs><g clip-path="url(#__lottie_element_7)"><g transform="matrix(1,0,0,1,250,250)" opacity="1" style="display: block;"><path stroke-linecap="round" stroke-linejoin="miter" fill-opacity="0" stroke-miterlimit="4" stroke="rgb(0,0,0)" stroke-opacity="0.2" stroke-width="17" d=" M0,-225 C124.17749786376953,-225 225,-124.17749786376953 225,0 C225,124.17749786376953 124.17749786376953,225 0,225 C-124.17749786376953,225 -225,124.17749786376953 -225,0 C-225,-124.17749786376953 -124.17749786376953,-225 0,-225z"></path></g><g transform="matrix(1,0,0,1,250,250)" opacity="1" style="display: block;"><path stroke-linecap="round" stroke-linejoin="miter" fill-opacity="0" stroke-miterlimit="4" stroke="rgb(115,200,70)" stroke-opacity="1" stroke-width="17" d=" M0,-225 C124.17749786376953,-225 225,-124.17749786376953 225,0 C225,124.17749786376953 124.17749786376953,225 0,225 C-124.17749786376953,225 -225,124.17749786376953 -225,0 C-225,-124.17749786376953 -124.17749786376953,-225 0,-225z"></path></g></g></svg>